<svg width="80" height="80" viewBox="0 0 80 80" fill="none" xmlns="http://www.w3.org/2000/svg">
<path d="M79.4492 75.2463L59.294 55.0911C58.9346 54.7317 58.4659 54.5442 57.9659 54.5442H56.3566C61.7157 48.7476 64.9968 41.0136 64.9968 32.4984C64.9968 14.5462 50.4507 0 32.4984 0C14.5462 0 0 14.5462 0 32.4984C0 50.4507 14.5462 64.9968 32.4984 64.9968C41.0136 64.9968 48.7476 61.7157 54.5442 56.3722V57.9659C54.5442 58.4659 54.7473 58.9346 55.0911 59.294L75.2463 79.4492C75.9807 80.1836 77.1681 80.1836 77.9024 79.4492L79.4492 77.9024C80.1836 77.1681 80.1836 75.9807 79.4492 75.2463ZM32.4984 59.9971C17.296 59.9971 4.99976 47.7008 4.99976 32.4984C4.99976 17.296 17.296 4.99976 32.4984 4.99976C47.7008 4.99976 59.9971 17.296 59.9971 32.4984C59.9971 47.7008 47.7008 59.9971 32.4984 59.9971Z" fill="black"/>
</svg>
